<svg width="96" height="24" viewBox="0 0 25.4 6.35" xmlns="http://www.w3.org/2000/svg"><path style="fill:#fff;stroke-width:.179732" d="m8.202.25.2.2 4.121 4.106V.25zM6.625 1.86v4.297h4.281l-.199-.199z"/><path style="fill:#fff;stroke-width:.107429" d="M24.498 6.085 19.315.955l.637-.65 5.183 5.129zm-5.143-.637L24.448.265l.647.637-5.093 5.183z"/><path style="fill:#fff;stroke-width:.0895617" d="M.265 5.292h5.821v.794H.265z"/><path style="fill:#fff;stroke-width:.0787291" d="M18.52.265v4.498h-.794V.264zm-4.498 0h3.97v.793h-3.97zm3.97-.005h.795v4.503h-.794zm-3.967.236h4.762v.794h-4.762zm-1.06 1.62h3.968v3.97h-3.968z"/></svg>