<?xml version="1.0" encoding="UTF-8" standalone="no"?>
<!-- Created with Inkscape (http://www.inkscape.org/) -->

<svg
   width="64"
   height="64"
   viewBox="0 0 16.933333 16.933334"
   version="1.1"
   id="svg28"
   inkscape:version="1.1.1 (3bf5ae0d25, 2021-09-20, custom)"
   sodipodi:docname="favicon.svg"
   xmlns:inkscape="http://www.inkscape.org/namespaces/inkscape"
   xmlns:sodipodi="http://sodipodi.sourceforge.net/DTD/sodipodi-0.dtd"
   xmlns="http://www.w3.org/2000/svg"
   xmlns:svg="http://www.w3.org/2000/svg">
  <sodipodi:namedview
     id="namedview30"
     pagecolor="#ffffff"
     bordercolor="#666666"
     borderopacity="1.0"
     inkscape:pageshadow="2"
     inkscape:pageopacity="0.0"
     inkscape:pagecheckerboard="0"
     inkscape:document-units="mm"
     showgrid="false"
     units="px"
     inkscape:zoom="8.979798"
     inkscape:cx="25.668729"
     inkscape:cy="31.849269"
     inkscape:window-width="1920"
     inkscape:window-height="1011"
     inkscape:window-x="0"
     inkscape:window-y="40"
     inkscape:window-maximized="1"
     inkscape:current-layer="layer1" />
  <defs
     id="defs25" />
  <g
     inkscape:label="Layer 1"
     inkscape:groupmode="layer"
     id="layer1">
    <g
       aria-label="JDE"
       id="text2036"
       style="font-size:8.46667px;line-height:1.25;stroke-width:0.264583">
      <path
         d="m 1.7578939,5.1085748 h 1.5916347 v 5.5727892 q 0,1.153418 -0.6283856,1.723926 -0.6242516,0.570508 -1.89342525,0.570508 H 0.50525668 V 11.77277 h 0.24804698 q 0.49609394,0 0.74827504,-0.276986 0.2563152,-0.276985 0.2563152,-0.81442 z"
         style="font-weight:bold;font-family:Terminus;-inkscape-font-specification:'Terminus Bold';fill:#666666"
         id="path37732" />
      <path
         d="m 6.4997252,6.3116026 v 3.7661804 h 0.570508 q 0.9756515,0 1.4882819,-0.4836921 0.5167645,-0.4836916 0.5167645,-1.4055995 0,-0.9177738 -0.5126304,-1.3973313 Q 8.0500188,6.3116026 7.0702332,6.3116026 Z M 4.9080905,5.1085748 h 1.6784511 q 1.4055996,0 2.0918629,0.2025717 0.6903974,0.1984376 1.1823572,0.6779951 0.4340823,0.4175457 0.6449223,0.9632491 0.21084,0.5457033 0.21084,1.2361007 0,0.6986657 -0.21084,1.2485031 -0.21084,0.5457034 -0.6449223,0.9632495 -0.496094,0.479557 -1.1906255,0.682129 Q 7.9756047,11.28081 6.5865416,11.28081 H 4.9080905 Z"
         style="font-weight:bold;font-family:Terminus;-inkscape-font-specification:'Terminus Bold';fill:#666666"
         id="path37734" />
      <path
         d="m 11.936088,5.1085748 h 4.295347 V 6.3116026 H 13.527723 V 7.460887 h 2.542481 v 1.2030278 h -2.542481 v 1.4138682 h 2.794662 v 1.203027 h -4.386297 z"
         style="font-weight:bold;font-family:Terminus;-inkscape-font-specification:'Terminus Bold';fill:#666666"
         id="path37736" />
    </g>
  </g>
</svg>
