<svg width="64" height="64" viewBox="0 0 16.933 16.933" xmlns="http://www.w3.org/2000/svg"><g aria-label="JDE" style="font-size:8.46667px;line-height:1.25;stroke-width:.264583"><path d="M1.758 5.109H3.35v5.572q0 1.154-.629 1.724-.624.57-1.893.57H.505v-1.202h.248q.496 0 .749-.277.256-.277.256-.815zM6.5 6.312v3.766h.57q.976 0 1.489-.484.516-.484.516-1.406 0-.917-.512-1.397-.513-.48-1.493-.48zM4.908 5.109h1.679q1.405 0 2.091.202.69.199 1.183.678.434.418.645.963.21.546.21 1.236 0 .7-.21 1.249-.211.546-.645.963-.496.48-1.19.682-.695.199-2.084.199H4.908zM11.936 5.109h4.295v1.203h-2.703V7.46h2.542v1.203h-2.542v1.414h2.794v1.203h-4.386z" style="font-weight:700;font-family:Terminus;-inkscape-font-specification:'Terminus Bold';fill:#666"/></g></svg>