<?xml version="1.0" encoding="UTF-8" standalone="no"?>
<!-- Created with Inkscape (http://www.inkscape.org/) -->

<svg
   width="512"
   height="475"
   viewBox="0 0 135.46666 125.67709"
   version="1.1"
   id="svg5"
   inkscape:version="1.1.1 (3bf5ae0d25, 2021-09-20, custom)"
   sodipodi:docname="jde.svg"
   xmlns:inkscape="http://www.inkscape.org/namespaces/inkscape"
   xmlns:sodipodi="http://sodipodi.sourceforge.net/DTD/sodipodi-0.dtd"
   xmlns="http://www.w3.org/2000/svg"
   xmlns:svg="http://www.w3.org/2000/svg">
  <sodipodi:namedview
     id="namedview7"
     pagecolor="#ffffff"
     bordercolor="#666666"
     borderopacity="1.0"
     inkscape:pageshadow="2"
     inkscape:pageopacity="0.0"
     inkscape:pagecheckerboard="0"
     inkscape:document-units="mm"
     showgrid="false"
     units="px"
     width="512px"
     showguides="true"
     inkscape:guide-bbox="true"
     inkscape:zoom="1.1224747"
     inkscape:cx="-28.953881"
     inkscape:cy="260.13948"
     inkscape:window-width="1920"
     inkscape:window-height="1011"
     inkscape:window-x="0"
     inkscape:window-y="40"
     inkscape:window-maximized="1"
     inkscape:current-layer="layer1"
     height="475px">
    <sodipodi:guide
       position="79.907139,111.1881"
       orientation="1,0"
       id="guide44498" />
    <sodipodi:guide
       position="4.2428569,77.480954"
       orientation="1,0"
       id="guide47973" />
    <sodipodi:guide
       position="25.692856,91.859526"
       orientation="1,0"
       id="guide47975" />
    <sodipodi:guide
       position="42.738895,3.3443926"
       orientation="0,-1"
       id="guide47977" />
    <sodipodi:guide
       position="89.099996,73.473811"
       orientation="0,-1"
       id="guide47979" />
    <sodipodi:guide
       position="79.907139,15.537428"
       orientation="0,-1"
       id="guide47981" />
  </sodipodi:namedview>
  <defs
     id="defs2">
    <rect
       x="72.967117"
       y="87.442619"
       width="379.20575"
       height="365.75629"
       id="rect3597" />
    <rect
       x="72.967117"
       y="87.442619"
       width="379.20575"
       height="365.75629"
       id="rect3597-6" />
    <rect
       x="72.967117"
       y="87.442619"
       width="379.20575"
       height="365.75629"
       id="rect3597-6-4" />
  </defs>
  <g
     inkscape:label="Layer 1"
     inkscape:groupmode="layer"
     id="layer1">
    <g
       aria-label="JD"
       transform="matrix(0.43184885,0,0,0.56051848,-23.447968,-58.418964)"
       id="text3595"
       style="font-weight:bold;font-size:144px;line-height:1.25;font-family:Terminus;-inkscape-font-specification:'Terminus Bold';white-space:pre;shape-inside:url(#rect3597);fill:#666666">
      <path
         d="m 86.185547,109.87305 h 27.070313 v 94.78125 q 0,19.61718 -10.6875,29.32031 -10.617188,9.70312 -32.203126,9.70312 H 64.880859 V 223.2168 h 4.21875 q 8.4375,0 12.726563,-4.71094 4.359375,-4.71094 4.359375,-13.85156 z"
         id="path60588" />
      <path
         d="m 166.83398,130.33398 v 64.05469 h 9.70313 q 16.59375,0 25.3125,-8.22656 8.78906,-8.22656 8.78906,-23.90625 0,-15.60938 -8.71875,-23.76563 -8.71875,-8.15625 -25.38281,-8.15625 z m -27.07031,-20.46093 h 28.54688 q 23.90625,0 35.57812,3.44531 11.74219,3.375 20.10938,11.53125 7.38281,7.10156 10.96875,16.38281 3.58593,9.28125 3.58593,21.02344 0,11.88281 -3.58593,21.23437 -3.58594,9.28125 -10.96875,16.38282 -8.4375,8.15625 -20.25,11.60156 -11.8125,3.375 -35.4375,3.375 h -28.54688 z"
         id="path60590" />
    </g>
    <g
       aria-label="E"
       transform="matrix(0.57160694,0,0,0.5046555,-12.262392,11.181965)"
       id="text3595-6"
       style="font-weight:bold;font-size:144px;line-height:1.25;font-family:Terminus;-inkscape-font-specification:'Terminus Bold';white-space:pre;shape-inside:url(#rect3597-6);fill:#666666">
      <path
         d="m 86.185547,109.87305 h 73.054683 v 20.46093 h -45.98437 v 19.54688 h 43.24219 v 20.46094 h -43.24219 v 24.04687 h 47.53125 v 20.46094 H 86.185547 Z"
         id="path60596" />
    </g>
    <g
       aria-label="S"
       transform="matrix(0.25476599,0,0,0.35804223,-16.954696,41.89765)"
       id="text3595-6-9"
       style="font-weight:bold;font-size:144px;line-height:1.25;font-family:Terminus;-inkscape-font-specification:'Terminus Bold';white-space:pre;shape-inside:url(#rect3597-6-4);fill:#666666">
      <path
         d="m 159.24023,113.17773 v 22.21875 q -8.64843,-3.86718 -16.875,-5.83593 -8.22656,-1.96875 -15.53906,-1.96875 -9.70312,0 -14.34375,2.67187 -4.64062,2.67188 -4.64062,8.29688 0,4.21875 3.09375,6.60937 3.16406,2.32031 11.39062,4.00781 l 11.53125,2.32032 q 17.50781,3.51562 24.89063,10.6875 7.38281,7.17187 7.38281,20.39062 0,17.36719 -10.33594,25.875 -10.26562,8.4375 -31.42969,8.4375 -9.98437,0 -20.03906,-1.89844 -10.054686,-1.89843 -20.109373,-5.625 v -22.85156 q 10.054687,5.34375 19.406253,8.08594 9.42187,2.67187 18.14062,2.67187 8.85938,0 13.57031,-2.95312 4.71094,-2.95313 4.71094,-8.4375 0,-4.92188 -3.23437,-7.59375 -3.16407,-2.67188 -12.72657,-4.78125 l -10.47656,-2.32031 q -15.749998,-3.375 -23.062498,-10.75782 -7.242188,-7.38281 -7.242188,-19.89843 0,-15.67969 10.125,-24.11719 10.124996,-8.4375 29.109376,-8.4375 8.64844,0 17.78906,1.33594 9.14063,1.26562 18.91406,3.86718 z"
         id="path60593" />
    </g>
    <g
       aria-label="esktop"
       transform="scale(0.88118583,1.1348344)"
       id="text51595"
       style="font-size:9.85247px;line-height:1.25;fill:#666666;stroke-width:0.246312">
      <path
         d="m 96.858424,51.244665 v 0.43297 h -4.069917 q 0.05773,0.914048 0.548429,1.395126 0.49551,0.476266 1.375882,0.476266 0.509942,0 0.986209,-0.12508 0.481078,-0.12508 0.952534,-0.37524 v 0.837075 q -0.476267,0.202052 -0.976588,0.307889 -0.500321,0.105838 -1.015074,0.105838 -1.289288,0 -2.04458,-0.750482 -0.750481,-0.750481 -0.750481,-2.030147 0,-1.322964 0.711995,-2.097499 0.716806,-0.779346 1.929121,-0.779346 1.087236,0 1.717448,0.702374 0.635022,0.697562 0.635022,1.900256 z m -0.885183,-0.259781 q -0.0096,-0.726428 -0.408916,-1.159398 -0.394483,-0.43297 -1.048749,-0.43297 -0.74086,0 -1.188262,0.418538 -0.442591,0.418538 -0.509942,1.17864 z"
         id="path60599" />
      <path
         d="m 101.74617,48.930682 v 0.837075 q -0.37524,-0.192431 -0.77934,-0.288647 -0.40411,-0.09622 -0.83708,-0.09622 -0.659074,0 -0.991018,0.202053 -0.327133,0.202052 -0.327133,0.606157 0,0.30789 0.235728,0.485889 0.235728,0.173188 0.947723,0.331943 l 0.30308,0.06735 q 0.94291,0.202053 1.3374,0.572483 0.39929,0.365619 0.39929,1.024695 0,0.750481 -0.59654,1.188262 -0.59172,0.437781 -1.63085,0.437781 -0.43297,0 -0.904426,-0.08659 -0.466645,-0.08178 -0.986209,-0.250161 v -0.914047 q 0.490699,0.254971 0.966966,0.384862 0.476267,0.12508 0.942912,0.12508 0.625397,0 0.962157,-0.211674 0.33675,-0.216485 0.33675,-0.606158 0,-0.360808 -0.24535,-0.553239 -0.24054,-0.192431 -1.063178,-0.37043 l -0.30789,-0.07216 q -0.822643,-0.173188 -1.188262,-0.529185 -0.365619,-0.360808 -0.365619,-0.986209 0,-0.760103 0.538807,-1.17383 0.538807,-0.413727 1.529832,-0.413727 0.49069,0 0.92366,0.07216 0.43297,0.07216 0.79859,0.216485 z"
         id="path60601" />
      <path
         d="m 103.4107,46.674428 h 0.89 v 4.421103 l 2.64111,-2.323605 h 1.13053 l -2.8576,2.520847 2.97787,2.867223 h -1.15458 l -2.73733,-2.631495 v 2.631495 h -0.89 z"
         id="path60603" />
      <path
         d="m 110.02552,47.242099 v 1.529827 h 1.82328 v 0.687941 h -1.82328 v 2.924952 q 0,0.659077 0.178,0.846697 0.18281,0.18762 0.73605,0.18762 h 0.90923 v 0.74086 h -0.90923 q -1.0247,0 -1.41437,-0.380051 -0.38967,-0.384862 -0.38967,-1.395126 v -2.924952 h -0.64946 v -0.687941 h 0.64946 v -1.529827 z"
         id="path60605" />
      <path
         d="m 115.10089,49.392516 q -0.712,0 -1.12572,0.558051 -0.41373,0.553239 -0.41373,1.520205 0,0.966966 0.40892,1.525016 0.41372,0.553239 1.13053,0.553239 0.70718,0 1.12091,-0.55805 0.41373,-0.55805 0.41373,-1.520205 0,-0.957345 -0.41373,-1.515395 -0.41373,-0.562861 -1.12091,-0.562861 z m 0,-0.750481 q 1.15459,0 1.81366,0.750481 0.65908,0.750482 0.65908,2.078256 0,1.322963 -0.65908,2.078255 -0.65907,0.750482 -1.81366,0.750482 -1.1594,0 -1.81847,-0.750482 -0.65427,-0.755292 -0.65427,-2.078255 0,-1.327774 0.65427,-2.078256 0.65907,-0.750481 1.81847,-0.750481 z"
         id="path60607" />
      <path
         d="m 119.89723,53.351786 v 2.857601 h -0.88999 v -7.437461 h 0.88999 v 0.817832 q 0.27903,-0.481077 0.70238,-0.711995 0.42815,-0.235728 1.01988,-0.235728 0.9814,0 1.59237,0.779346 0.61578,0.779346 0.61578,2.049391 0,1.270045 -0.61578,2.049391 -0.61097,0.779346 -1.59237,0.779346 -0.59173,0 -1.01988,-0.230918 -0.42335,-0.235728 -0.70238,-0.716805 z m 3.01155,-1.881014 q 0,-0.976588 -0.40411,-1.529827 -0.39929,-0.55805 -1.10166,-0.55805 -0.70238,0 -1.10648,0.55805 -0.3993,0.553239 -0.3993,1.529827 0,0.976588 0.3993,1.534638 0.4041,0.553239 1.10648,0.553239 0.70237,0 1.10166,-0.553239 0.40411,-0.55805 0.40411,-1.534638 z"
         id="path60609" />
    </g>
    <g
       aria-label="nvironment"
       transform="matrix(0.9127124,0,0,1.0956354,0,-0.23571429)"
       id="text51595-0"
       style="font-size:10.0741px;line-height:1.25;fill:#666666;stroke-width:0.251851">
      <path
         d="m 93.176608,105.8657 v 3.32524 h -0.905094 v -3.29573 q 0,-0.78212 -0.304978,-1.17072 -0.304978,-0.3886 -0.914933,-0.3886 -0.73293,0 -1.155963,0.46731 -0.423034,0.4673 -0.423034,1.27402 v 3.11372 h -0.910014 v -5.50927 h 0.910014 v 0.8559 q 0.324654,-0.49682 0.762444,-0.74277 0.44271,-0.24595 1.018232,-0.24595 0.949366,0 1.436346,0.59028 0.48698,0.58536 0.48698,1.72657 z"
         id="path60612" />
      <path
         d="m 94.332572,103.68167 h 0.959204 l 1.721648,4.62385 1.721648,-4.62385 h 0.959204 l -2.065978,5.50927 H 96.39855 Z"
         id="path60614" />
      <path
         d="m 100.9437,103.68167 h 0.90509 v 5.50927 h -0.90509 z m 0,-2.14468 h 0.90509 v 1.14612 h -0.90509 z"
         id="path60616" />
      <path
         d="m 106.93503,104.52773 q -0.15248,-0.0885 -0.33449,-0.12789 -0.17708,-0.0443 -0.39352,-0.0443 -0.76736,0 -1.18056,0.50174 -0.40827,0.49682 -0.40827,1.43142 v 2.90221 h -0.91002 v -5.50927 h 0.91002 v 0.8559 q 0.2853,-0.50173 0.74277,-0.74277 0.45746,-0.24595 1.11169,-0.24595 0.0935,0 0.2066,0.0148 0.11313,0.01 0.25087,0.0344 z"
         id="path60618" />
      <path
         d="m 109.79789,104.31622 q -0.72801,0 -1.15105,0.5706 -0.42303,0.56569 -0.42303,1.5544 0,0.98872 0.41812,1.55932 0.42303,0.56569 1.15596,0.56569 0.72309,0 1.14613,-0.5706 0.42303,-0.57061 0.42303,-1.55441 0,-0.97888 -0.42303,-1.54948 -0.42304,-0.57552 -1.14613,-0.57552 z m 0,-0.76737 q 1.18056,0 1.85446,0.76737 0.6739,0.76736 0.6739,2.125 0,1.35273 -0.6739,2.12501 -0.6739,0.76736 -1.85446,0.76736 -1.18548,0 -1.85938,-0.76736 -0.66898,-0.77228 -0.66898,-2.12501 0,-1.35764 0.66898,-2.125 0.6739,-0.76737 1.85938,-0.76737 z"
         id="path60620" />
      <path
         d="m 118.40613,105.8657 v 3.32524 h -0.9051 v -3.29573 q 0,-0.78212 -0.30497,-1.17072 -0.30498,-0.3886 -0.91494,-0.3886 -0.73293,0 -1.15596,0.46731 -0.42303,0.4673 -0.42303,1.27402 v 3.11372 h -0.91002 v -5.50927 h 0.91002 v 0.8559 q 0.32465,-0.49682 0.76244,-0.74277 0.44271,-0.24595 1.01823,-0.24595 0.94937,0 1.43635,0.59028 0.48698,0.58536 0.48698,1.72657 z"
         id="path60622" />
      <path
         d="m 124.50076,104.73925 q 0.33941,-0.60995 0.81164,-0.90017 0.47222,-0.29023 1.11169,-0.29023 0.86082,0 1.32813,0.60504 0.4673,0.60012 0.4673,1.71181 v 3.32524 h -0.91001 v -3.29573 q 0,-0.79195 -0.28039,-1.17563 -0.28038,-0.38369 -0.8559,-0.38369 -0.70342,0 -1.11169,0.46731 -0.40828,0.4673 -0.40828,1.27402 v 3.11372 h -0.91001 v -3.29573 q 0,-0.79687 -0.28039,-1.17563 -0.28038,-0.38369 -0.86574,-0.38369 -0.69358,0 -1.10185,0.47223 -0.40828,0.4673 -0.40828,1.2691 v 3.11372 h -0.91001 v -5.50927 h 0.91001 v 0.8559 q 0.3099,-0.50665 0.74277,-0.74768 0.43287,-0.24104 1.02807,-0.24104 0.60012,0 1.01823,0.30498 0.42303,0.30498 0.62471,0.88542 z"
         id="path60624" />
      <path
         d="m 134.73719,106.21003 v 0.44271 h -4.16147 q 0.059,0.93461 0.56077,1.42651 0.50665,0.48698 1.40683,0.48698 0.52141,0 1.00839,-0.1279 0.4919,-0.12789 0.97396,-0.38368 v 0.85591 q -0.48698,0.2066 -0.99855,0.31481 -0.51158,0.10822 -1.03791,0.10822 -1.31829,0 -2.09057,-0.76736 -0.76737,-0.76736 -0.76737,-2.07582 0,-1.35272 0.72802,-2.14468 0.73293,-0.79688 1.97251,-0.79688 1.11169,0 1.75608,0.71818 0.64931,0.71325 0.64931,1.943 z m -0.90509,-0.26563 q -0.01,-0.74276 -0.41812,-1.18547 -0.40336,-0.44271 -1.07234,-0.44271 -0.75753,0 -1.21499,0.42795 -0.45255,0.42795 -0.52141,1.20515 z"
         id="path60626" />
      <path
         d="m 140.80231,105.8657 v 3.32524 h -0.9051 v -3.29573 q 0,-0.78212 -0.30498,-1.17072 -0.30497,-0.3886 -0.91493,-0.3886 -0.73293,0 -1.15596,0.46731 -0.42304,0.4673 -0.42304,1.27402 v 3.11372 h -0.91001 v -5.50927 h 0.91001 v 0.8559 q 0.32466,-0.49682 0.76245,-0.74277 0.44271,-0.24595 1.01823,-0.24595 0.94937,0 1.43635,0.59028 0.48698,0.58536 0.48698,1.72657 z"
         id="path60628" />
      <path
         d="m 143.50284,102.11743 v 1.56424 h 1.8643 v 0.70341 h -1.8643 v 2.99075 q 0,0.6739 0.182,0.86575 0.18692,0.19184 0.75261,0.19184 h 0.92969 v 0.75752 h -0.92969 q -1.04775,0 -1.44619,-0.3886 -0.39844,-0.39352 -0.39844,-1.42651 v -2.99075 h -0.66406 v -0.70341 h 0.66406 v -1.56424 z"
         id="path60630" />
    </g>
  </g>
</svg>
