<svg width="512" height="475" viewBox="0 0 135.467 125.677" xmlns="http://www.w3.org/2000/svg"><defs><path id="a" d="M72.967 87.443h379.206v365.756H72.967z"/><path id="b" d="M72.967 87.443h379.206v365.756H72.967z"/><path id="c" d="M72.967 87.443h379.206v365.756H72.967z"/></defs><g aria-label="JD" transform="matrix(.43185 0 0 .56052 -23.448 -58.419)" style="font-weight:700;font-size:144px;line-height:1.25;font-family:Terminus;-inkscape-font-specification:'Terminus Bold';white-space:pre;shape-inside:url(#a);fill:#666"><path d="M86.186 109.873h27.07v94.781q0 19.617-10.688 29.32-10.617 9.704-32.203 9.704h-5.484v-20.461H69.1q8.437 0 12.726-4.711 4.36-4.711 4.36-13.852zM166.834 130.334v64.055h9.703q16.594 0 25.313-8.227 8.789-8.226 8.789-23.906 0-15.61-8.72-23.766-8.718-8.156-25.382-8.156zm-27.07-20.461h28.547q23.906 0 35.578 3.445 11.742 3.375 20.109 11.532 7.383 7.101 10.969 16.382 3.586 9.282 3.586 21.024 0 11.883-3.586 21.234-3.586 9.281-10.969 16.383-8.437 8.156-20.25 11.602-11.812 3.375-35.437 3.375h-28.547z"/></g><path d="M86.186 109.873h73.054v20.461h-45.984v19.547h43.242v20.46h-43.242v24.048h47.531v20.46H86.186z" aria-label="E" transform="matrix(.5716 0 0 .50466 -12.262 11.182)" style="font-weight:700;font-size:144px;line-height:1.25;font-family:Terminus;-inkscape-font-specification:'Terminus Bold';white-space:pre;shape-inside:url(#b);fill:#666"/><path d="M159.24 113.178v22.218q-8.648-3.867-16.875-5.835-8.226-1.97-15.539-1.97-9.703 0-14.344 2.673-4.64 2.672-4.64 8.297 0 4.218 3.094 6.609 3.164 2.32 11.39 4.008l11.531 2.32q17.508 3.516 24.891 10.688 7.383 7.171 7.383 20.39 0 17.367-10.336 25.875-10.266 8.438-31.43 8.438-9.984 0-20.039-1.899-10.055-1.898-20.11-5.625v-22.851q10.055 5.343 19.407 8.086 9.422 2.671 18.14 2.671 8.86 0 13.571-2.953 4.71-2.953 4.71-8.437 0-4.922-3.233-7.594-3.165-2.672-12.727-4.781l-10.477-2.32q-15.75-3.375-23.062-10.758-7.242-7.383-7.242-19.899 0-15.68 10.125-24.117 10.125-8.437 29.11-8.437 8.648 0 17.788 1.336 9.14 1.265 18.914 3.867z" aria-label="S" transform="matrix(.25477 0 0 .35804 -16.955 41.898)" style="font-weight:700;font-size:144px;line-height:1.25;font-family:Terminus;-inkscape-font-specification:'Terminus Bold';white-space:pre;shape-inside:url(#c);fill:#666"/><g aria-label="esktop" style="font-size:9.85247px;line-height:1.25;fill:#666;stroke-width:.246312"><path d="M85.35 58.154v.492h-3.586q.05 1.037.483 1.583.437.54 1.213.54.449 0 .869-.142.424-.142.839-.426v.95q-.42.23-.86.35-.441.12-.895.12-1.136 0-1.802-.852-.661-.851-.661-2.304 0-1.5.627-2.38.632-.884 1.7-.884.958 0 1.514.797.56.791.56 2.156zm-.78-.295q-.008-.824-.36-1.315-.348-.492-.924-.492-.653 0-1.047.475-.39.475-.45 1.338zM89.657 55.528v.95q-.33-.218-.686-.327-.357-.11-.738-.11-.58 0-.873.23-.289.229-.289.688 0 .349.208.551.208.197.835.377l.267.076q.831.23 1.179.65.352.415.352 1.163 0 .851-.526 1.348-.521.497-1.437.497-.382 0-.797-.098-.411-.093-.87-.284V60.2q.433.29.853.437.42.142.83.142.552 0 .849-.24.296-.246.296-.688 0-.41-.216-.628-.212-.218-.937-.42l-.27-.082q-.726-.197-1.048-.6-.322-.41-.322-1.12 0-.862.475-1.332.474-.47 1.348-.47.432 0 .814.083.381.081.703.245zM91.124 52.968h.784v5.017l2.328-2.637h.996l-2.518 2.86 2.624 3.255H94.32l-2.412-2.987v2.987h-.784zM96.953 53.612v1.736h1.607v.78h-1.607v3.32q0 .748.157.961.16.213.648.213h.802v.84h-.802q-.903 0-1.246-.43-.343-.437-.343-1.584v-3.32h-.573v-.78h.573v-1.736zM101.425 56.052q-.627 0-.992.634-.364.627-.364 1.725 0 1.097.36 1.73.365.628.996.628.623 0 .988-.633t.365-1.725q0-1.087-.365-1.72-.365-.639-.988-.639zm0-.851q1.018 0 1.598.851.581.852.581 2.359 0 1.501-.58 2.358-.581.852-1.599.852-1.021 0-1.602-.852-.577-.857-.577-2.358 0-1.507.577-2.359.58-.851 1.602-.851zM105.652 60.545v3.243h-.785v-8.44h.785v.928q.246-.546.619-.808.377-.267.898-.267.865 0 1.404.884.542.885.542 2.326t-.542 2.326q-.539.884-1.404.884-.521 0-.898-.262-.373-.268-.62-.814zm2.653-2.134q0-1.108-.356-1.736-.351-.634-.97-.634-.62 0-.975.634-.352.628-.352 1.736t.352 1.741q.356.628.975.628t.97-.628q.356-.633.356-1.741z"/></g><g aria-label="nvironment" style="font-size:10.0741px;line-height:1.25;fill:#666;stroke-width:.251851"><path d="M85.043 115.754v3.644h-.826v-3.611q0-.857-.278-1.283-.278-.426-.835-.426-.669 0-1.055.512-.386.512-.386 1.396v3.412h-.83v-6.036h.83v.937q.296-.544.696-.813.404-.27.929-.27.867 0 1.311.647.444.641.444 1.891zM86.099 113.362h.875l1.571 5.066 1.572-5.066h.875l-1.885 6.036h-1.123zM92.133 113.362h.826v6.036h-.826zm0-2.35h.826v1.256h-.826zM97.6 114.289q-.138-.097-.304-.14-.162-.05-.36-.05-.7 0-1.077.55-.373.545-.373 1.569v3.18h-.83v-6.036h.83v.937q.26-.55.678-.813.418-.27 1.015-.27.085 0 .188.016.104.011.23.038zM100.214 114.057q-.665 0-1.05.625-.387.62-.387 1.703 0 1.083.382 1.709.386.62 1.055.62.66 0 1.046-.626.386-.625.386-1.703 0-1.072-.386-1.698-.386-.63-1.046-.63zm0-.84q1.077 0 1.692.84.616.84.616 2.328 0 1.482-.616 2.328-.615.841-1.692.841-1.082 0-1.697-.84-.61-.847-.61-2.329 0-1.487.61-2.328.615-.84 1.697-.84zM108.07 115.754v3.644h-.825v-3.611q0-.857-.279-1.283-.278-.426-.835-.426-.669 0-1.055.512-.386.512-.386 1.396v3.412h-.83v-6.036h.83v.937q.296-.544.696-.813.404-.27.93-.27.866 0 1.31.647.445.641.445 1.891zM113.633 114.52q.31-.668.741-.986.431-.318 1.015-.318.786 0 1.212.663.427.657.427 1.875v3.644h-.831v-3.611q0-.868-.256-1.288-.256-.42-.781-.42-.642 0-1.015.511-.372.512-.372 1.396v3.412h-.831v-3.611q0-.873-.256-1.288-.256-.42-.79-.42-.633 0-1.006.517-.372.512-.372 1.39v3.412h-.831v-6.036h.83v.937q.283-.555.679-.819.395-.264.938-.264.548 0 .93.334.385.334.57.97zM122.976 116.132v.485h-3.798q.054 1.024.512 1.563.462.533 1.284.533.476 0 .92-.14.45-.14.89-.42v.938q-.445.226-.912.344-.467.119-.947.119-1.204 0-1.909-.84-.7-.841-.7-2.275 0-1.482.665-2.35.668-.873 1.8-.873 1.015 0 1.603.787.592.781.592 2.129zm-.826-.291q-.009-.814-.381-1.3-.369-.484-.98-.484-.69 0-1.108.469-.413.469-.476 1.32zM128.512 115.754v3.644h-.826v-3.611q0-.857-.278-1.283-.279-.426-.836-.426-.668 0-1.055.512-.386.512-.386 1.396v3.412h-.83v-6.036h.83v.937q.297-.544.696-.813.404-.27.93-.27.866 0 1.31.647.445.641.445 1.891zM130.977 111.648v1.714h1.701v.77h-1.701v3.277q0 .738.166.949.17.21.687.21h.848v.83h-.848q-.956 0-1.32-.426-.364-.431-.364-1.563v-3.277h-.606v-.77h.606v-1.714z"/></g></svg>