<svg width="128" height="128" viewBox="0 0 96 96" xmlns="http://www.w3.org/2000/svg"><path style="fill:#000;stroke-width:.75" d="M7.5 0h81A7.5 7.5 45 0 1 96 7.5v81a7.5 7.5 135 0 1-7.5 7.5h-81A7.5 7.5 45 0 1 0 88.5v-81A7.5 7.5 135 0 1 7.5 0z"/><g style="fill:#fff"><path d="M503.44 28H230.72c-17.922 0-24.641 9.52-10.641 23.52 18.48 18.48 40.32 40.879 73.922 70 0 0-151.76 94.641-125.44 250.32 26.32 155.12 207.76 174.16 212.24 153.44 5.04-21.281-105.28-43.68-77.84-113.68 26.879-68.32 51.52-94.078 121.52-159.6 34.719 34.719 62.719 66.078 84.559 87.922 14.559 15.68 25.762 14.559 25.762-6.719v-277.2C534.802 35.84 526.4 28 503.443 28z" fill-rule="evenodd" style="fill:#fff" transform="matrix(.13727 0 0 .13711 -.066 9.595)"/></g></svg>